<?xml version="1.0" standalone="no"?>
<!DOCTYPE svg PUBLIC "-//W3C//DTD SVG 20010904//EN"
 "http://www.w3.org/TR/2001/REC-SVG-20010904/DTD/svg10.dtd">
<svg version="1.0" xmlns="http://www.w3.org/2000/svg"
 width="512.000000pt" height="512.000000pt" viewBox="0 0 512.000000 512.000000"
 preserveAspectRatio="xMidYMid meet">
<metadata>
Created by potrace 1.11, written by Peter Selinger 2001-2013
</metadata>
<g transform="translate(0.000000,512.000000) scale(0.100000,-0.100000)"
fill="#000000" stroke="none">
<path d="M1095 3765 c-482 -78 -790 -388 -892 -900 -28 -141 -25 -513 5 -653
55 -252 145 -428 299 -585 154 -156 342 -251 578 -292 121 -21 372 -21 490 0
371 66 628 275 743 605 47 133 62 248 63 480 l1 205 -501 3 -501 2 0 -185 0
-185 261 0 260 0 -6 -57 c-16 -144 -58 -234 -151 -323 -102 -99 -240 -149
-405 -150 -307 -1 -527 185 -617 519 -23 87 -25 114 -26 301 -1 166 3 220 17
285 64 277 206 444 433 511 82 24 258 24 339 0 173 -51 297 -165 360 -330 l18
-46 248 0 c288 0 264 -14 224 124 -95 328 -369 573 -734 657 -116 27 -380 34
-506 14z"/>
<path d="M3575 3765 c-456 -71 -775 -363 -888 -811 -72 -286 -60 -667 29 -916
104 -292 312 -520 570 -628 299 -124 708 -125 1006 -1 219 92 424 295 527 523
141 310 159 773 44 1116 -116 348 -388 605 -731 691 -166 42 -390 53 -557 26z
m357 -416 c187 -39 346 -186 431 -399 78 -198 87 -509 21 -739 -38 -129 -87
-213 -179 -307 -123 -125 -235 -169 -425 -168 -154 1 -238 29 -355 117 -108
81 -197 226 -243 396 -24 88 -26 113 -26 296 -1 236 15 320 90 474 36 74 61
109 122 171 121 122 232 168 409 169 56 1 126 -4 155 -10z"/>
</g>
</svg>
